<svg width="900" height="650" viewBox="0 0 900 650" fill="none" xmlns="http://www.w3.org/2000/svg">
  <defs>
    <linearGradient id="bg" x1="0" y1="0" x2="900" y2="650">
      <stop stop-color="#0b1f38"/>
      <stop offset=".6" stop-color="#071427"/>
      <stop offset="1" stop-color="#030a16"/>
    </linearGradient>
    <radialGradient id="glow" cx="30%" cy="24%" r="55%">
      <stop stop-color="#f2d275" stop-opacity=".16"/>
      <stop offset="1" stop-color="#f2d275" stop-opacity="0"/>
    </radialGradient>
  </defs>
  <rect width="900" height="650" fill="url(#bg)"/>
  <rect width="900" height="650" fill="url(#glow)"/>

  <!-- brand guideline sheet -->
  <rect x="120" y="90" width="660" height="470" rx="20" fill="#050f20" fill-opacity=".55" stroke="#f2d27540" stroke-width="1.5"/>

  <image href="../logo/logo-atlantico-studio.png" x="170" y="140" width="92" height="92" clip-path="circle(46px at 46px 46px)"/>
  <circle cx="216" cy="186" r="47" fill="none" stroke="#f2d275" stroke-opacity=".5" stroke-width="1.4"/>

  <text x="300" y="175" fill="#f5e9c8" font-family="Georgia, serif" font-size="34" letter-spacing="1">ATLÂNTICO</text>
  <text x="300" y="205" fill="#f2d275" font-family="Georgia, serif" font-size="19" letter-spacing="6">STUDIO</text>

  <line x1="170" y1="262" x2="730" y2="262" stroke="#f2d27530" stroke-width="1"/>

  <!-- typography specimen -->
  <text x="170" y="336" fill="#f3ead5" font-family="Georgia, serif" font-size="72">Aa</text>
  <text x="270" y="310" fill="#f3ead5" font-family="Inter, sans-serif" font-size="12" letter-spacing="2" opacity=".55">TÍTULOS — GEORGIA SERIF</text>
  <text x="270" y="334" fill="#f3ead5" font-family="Inter, sans-serif" font-size="12" letter-spacing="2" opacity=".55">TEXTO — INTER SANS-SERIF</text>

  <line x1="170" y1="368" x2="730" y2="368" stroke="#f2d27530" stroke-width="1"/>

  <!-- color palette -->
  <g transform="translate(170 400)">
    <rect x="0" y="0" width="80" height="80" rx="10" fill="#071427" stroke="#f2d27555"/>
    <text x="40" y="100" text-anchor="middle" fill="#f3ead5" font-family="Inter, sans-serif" font-size="10" opacity=".5">#071427</text>
    <rect x="100" y="0" width="80" height="80" rx="10" fill="#caa45d"/>
    <text x="140" y="100" text-anchor="middle" fill="#f3ead5" font-family="Inter, sans-serif" font-size="10" opacity=".5">#caa45d</text>
    <rect x="200" y="0" width="80" height="80" rx="10" fill="#f2d275"/>
    <text x="240" y="100" text-anchor="middle" fill="#f3ead5" font-family="Inter, sans-serif" font-size="10" opacity=".5">#f2d275</text>
    <rect x="300" y="0" width="80" height="80" rx="10" fill="#f3ead5"/>
    <text x="340" y="100" text-anchor="middle" fill="#f3ead5" font-family="Inter, sans-serif" font-size="10" opacity=".5">#f3ead5</text>
    <rect x="400" y="0" width="80" height="80" rx="10" fill="#0b1f38" stroke="#f2d27555"/>
    <text x="440" y="100" text-anchor="middle" fill="#f3ead5" font-family="Inter, sans-serif" font-size="10" opacity=".5">#0b1f38</text>
  </g>

  <text x="450" y="608" text-anchor="middle" fill="#f3ead5" font-family="Inter, sans-serif" font-size="12" letter-spacing="2" opacity=".32">DIREÇÃO DE PROJETO — SISTEMA DE IDENTIDADE VISUAL</text>
</svg>
